<svg width="525" height="291" viewBox="0 0 525 291" fill="none" xmlns="http://www.w3.org/2000/svg">
<rect width="525" height="291" fill="white"/>
<path d="M176.746 39.76L177.175 39.331H191.904C202.009 39.331 207.253 39.617 207.634 40.189C207.729 40.2843 208.873 53.059 211.066 78.513C213.163 104.062 214.212 116.742 214.212 116.551L236.091 79.085C250.772 53.917 258.208 41.19 258.399 40.904C258.78 40.332 259.209 39.9507 259.686 39.76L260.401 39.331H274.844H289.144L289.716 39.76C290.002 40.1413 290.145 40.475 290.145 40.761L288.858 46.481C287.619 47.053 285.807 47.339 283.424 47.339C279.325 47.4343 276.846 47.625 275.988 47.911L275.273 48.34L275.13 48.483C274.844 48.769 271.412 62.1157 264.834 88.523C258.256 115.026 255.015 128.277 255.11 128.277C255.587 128.754 258.447 128.992 263.69 128.992C265.978 128.992 267.265 129.326 267.551 129.993C267.742 130.279 267.599 131.375 267.122 133.282C266.741 135.093 266.359 136.19 265.978 136.571L265.549 137H263.404C253.775 136.523 242.86 136.476 230.657 136.857C227.797 136.952 226.176 136.666 225.795 135.999C225.604 135.713 225.747 134.617 226.224 132.71C226.701 130.899 227.034 129.802 227.225 129.421L227.797 128.992H232.23C236.711 128.897 239.237 128.706 239.809 128.42C240.286 128.134 240.667 127.514 240.953 126.561C241.62 124.75 244.814 112.356 250.534 89.381C256.826 63.8317 259.972 51.1523 259.972 51.343C259.877 51.343 251.678 65.357 235.376 93.385C218.883 121.604 210.589 135.761 210.494 135.856L209.493 136.714C209.112 136.905 208.015 137 206.204 137C203.916 137 202.677 136.714 202.486 136.142C202.295 135.665 201.056 121.651 198.768 94.1L195.336 52.344L186.327 88.38C180.321 112.118 177.318 124.321 177.318 124.988C177.318 125.56 177.366 125.894 177.461 125.989C178.224 127.991 181.274 128.992 186.613 128.992C187.948 128.992 188.71 129.326 188.901 129.993C189.092 130.279 188.949 131.375 188.472 133.282C188.091 135.093 187.709 136.19 187.328 136.571L186.899 137H185.04C176.365 136.523 166.974 136.476 156.869 136.857C154.486 136.952 153.103 136.666 152.722 135.999C152.531 135.713 152.674 134.617 153.151 132.71C153.628 130.803 154.009 129.707 154.295 129.421C154.581 129.135 155.201 128.992 156.154 128.992C162.923 128.992 167.07 127.419 168.595 124.273L187.614 48.34C187.614 48.054 187.519 47.911 187.328 47.911C186.756 47.7203 184.516 47.5297 180.607 47.339C177.27 47.339 175.411 47.0053 175.03 46.338C174.935 46.052 175.078 44.9557 175.459 43.049C175.936 41.2377 176.365 40.1413 176.746 39.76ZM297.647 74.08C299.268 73.6033 301.317 73.651 303.796 74.223C305.321 74.6043 306.847 75.3193 308.372 76.368C309.897 77.512 310.994 78.7037 311.661 79.943L312.233 80.801L313.52 79.514C315.331 77.8933 317.143 76.6063 318.954 75.653C322.386 73.937 325.913 73.365 329.536 73.937C335.923 74.9857 339.927 77.9887 341.548 82.946C342.025 84.376 342.215 85.9013 342.12 87.522C341.834 91.1447 340.595 93.814 338.402 95.53C335.161 97.9133 332.158 98.3423 329.393 96.817C328.249 96.245 327.439 95.387 326.962 94.243C326.676 93.7663 326.485 93.0037 326.39 91.955C326.39 90.3343 326.724 88.8567 327.391 87.522C328.44 85.6153 329.727 84.3283 331.252 83.661C331.824 83.375 332.11 83.1367 332.11 82.946C331.824 82.374 330.918 81.802 329.393 81.23C327.391 80.372 325.294 80.2767 323.101 80.944C319.669 82.1833 316.38 85.9013 313.234 92.098C312.853 92.8607 310.946 99.963 307.514 113.405C304.082 127.228 302.08 134.569 301.508 135.427C301.413 135.618 301.174 135.904 300.793 136.285C298.791 138.287 296.455 139.002 293.786 138.43C291.403 137.763 290.116 136.285 289.925 133.997C289.925 133.139 291.736 125.417 295.359 110.831C299.077 96.4357 301.031 88.5707 301.222 87.236C301.508 84.7573 301.413 82.946 300.936 81.802C300.555 81.1347 299.935 80.7057 299.077 80.515C298.505 80.515 298.028 80.658 297.647 80.944C296.694 81.6113 295.788 82.7553 294.93 84.376C293.977 86.664 292.785 90.525 291.355 95.959C291.069 96.531 290.878 96.8647 290.783 96.96C290.592 97.1507 289.448 97.246 287.351 97.246H284.205L283.776 96.817C283.49 96.531 283.347 96.1497 283.347 95.673L284.205 92.241C286.684 83.947 289.734 78.513 293.357 75.939C294.882 74.9857 296.312 74.366 297.647 74.08ZM357.975 118.41C360.168 118.029 362.122 118.315 363.838 119.268C366.889 120.984 368.08 123.701 367.413 127.419C366.936 129.516 365.888 131.423 364.267 133.139C361.026 136.571 357.498 137.763 353.685 136.714C352.541 136.333 351.492 135.713 350.539 134.855C347.965 132.472 347.536 129.326 349.252 125.417C350.491 122.843 352.398 120.889 354.972 119.554C356.116 118.982 357.117 118.601 357.975 118.41Z" fill="#00418D"/>
<path d="M161.07 185.293H148.133C148.133 183.137 147.781 181.227 147.078 179.562C146.375 177.875 145.391 176.445 144.125 175.273C142.859 174.102 141.359 173.223 139.625 172.637C137.891 172.027 135.969 171.723 133.859 171.723C129.828 171.723 126.078 172.742 122.609 174.781C119.141 176.82 116.199 179.785 113.785 183.676C111.371 187.543 109.695 192.242 108.758 197.773C107.891 203.164 107.973 207.676 109.004 211.309C110.059 214.941 111.887 217.684 114.488 219.535C117.09 221.363 120.254 222.277 123.98 222.277C126.254 222.277 128.434 221.996 130.52 221.434C132.605 220.848 134.527 219.992 136.285 218.867C138.066 217.719 139.625 216.324 140.961 214.684C142.32 213.043 143.375 211.18 144.125 209.094H157.238C156.16 212.516 154.578 215.738 152.492 218.762C150.406 221.762 147.898 224.41 144.969 226.707C142.039 228.98 138.758 230.762 135.125 232.051C131.492 233.34 127.578 233.984 123.383 233.984C116.938 233.984 111.418 232.484 106.824 229.484C102.254 226.461 98.9727 222.137 96.9805 216.512C94.9883 210.863 94.6367 204.102 95.9258 196.227C97.2148 188.562 99.6992 182.035 103.379 176.645C107.082 171.254 111.594 167.141 116.914 164.305C122.258 161.445 128.012 160.016 134.176 160.016C138.254 160.016 141.957 160.578 145.285 161.703C148.637 162.828 151.508 164.48 153.898 166.66C156.289 168.816 158.105 171.465 159.348 174.605C160.613 177.723 161.188 181.285 161.07 185.293ZM165.175 233L177.128 161H190.171L180.046 222.066H211.757L209.929 233H165.175ZM288.617 197.844C287.352 205.484 284.855 212 281.129 217.391C277.426 222.758 272.902 226.871 267.559 229.73C262.238 232.566 256.508 233.984 250.367 233.984C243.922 233.984 238.391 232.484 233.773 229.484C229.156 226.461 225.828 222.137 223.789 216.512C221.773 210.887 221.422 204.137 222.734 196.262C224 188.645 226.484 182.129 230.188 176.715C233.891 171.301 238.426 167.164 243.793 164.305C249.16 161.445 254.949 160.016 261.16 160.016C267.559 160.016 273.043 161.527 277.613 164.551C282.207 167.551 285.512 171.875 287.527 177.523C289.566 183.172 289.93 189.945 288.617 197.844ZM275.785 196.262C276.652 190.941 276.57 186.453 275.539 182.797C274.531 179.141 272.738 176.387 270.16 174.535C267.582 172.66 264.406 171.723 260.633 171.723C256.555 171.723 252.781 172.742 249.313 174.781C245.867 176.797 242.938 179.75 240.523 183.641C238.133 187.531 236.492 192.266 235.602 197.844C234.664 203.187 234.723 207.676 235.777 211.309C236.832 214.941 238.66 217.684 241.262 219.535C243.863 221.363 247.039 222.277 250.789 222.277C254.844 222.277 258.594 221.27 262.039 219.254C265.484 217.238 268.402 214.297 270.793 210.43C273.207 206.562 274.871 201.84 275.785 196.262ZM364.581 185.293H351.644C351.644 183.137 351.292 181.227 350.589 179.562C349.886 177.875 348.901 176.445 347.636 175.273C346.37 174.102 344.87 173.223 343.136 172.637C341.401 172.027 339.479 171.723 337.37 171.723C333.339 171.723 329.589 172.742 326.12 174.781C322.651 176.82 319.71 179.785 317.296 183.676C314.882 187.543 313.206 192.242 312.269 197.773C311.401 203.164 311.483 207.676 312.515 211.309C313.569 214.941 315.397 217.684 317.999 219.535C320.601 221.363 323.765 222.277 327.491 222.277C329.765 222.277 331.944 221.996 334.03 221.434C336.116 220.848 338.038 219.992 339.796 218.867C341.577 217.719 343.136 216.324 344.472 214.684C345.831 213.043 346.886 211.18 347.636 209.094H360.749C359.671 212.516 358.089 215.738 356.003 218.762C353.917 221.762 351.409 224.41 348.479 226.707C345.55 228.98 342.269 230.762 338.636 232.051C335.003 233.34 331.089 233.984 326.894 233.984C320.448 233.984 314.929 232.484 310.335 229.484C305.765 226.461 302.483 222.137 300.491 216.512C298.499 210.863 298.147 204.102 299.437 196.227C300.726 188.562 303.21 182.035 306.89 176.645C310.593 171.254 315.104 167.141 320.425 164.305C325.769 161.445 331.522 160.016 337.687 160.016C341.765 160.016 345.468 160.578 348.796 161.703C352.147 162.828 355.019 164.48 357.409 166.66C359.8 168.816 361.616 171.465 362.858 174.605C364.124 177.723 364.698 181.285 364.581 185.293ZM368.686 233L380.639 161H393.682L388.232 194.082H389.111L422.65 161H438.576L405.424 193.309L426.869 233H411.189L394.947 202.133L385.314 211.625L381.729 233H368.686Z" fill="#000534"/>
</svg>
