<svg width="350" height="234" viewBox="0 0 350 234" fill="none" xmlns="http://www.w3.org/2000/svg">
<path d="M87.746 16.76L88.175 16.331H102.904C113.009 16.331 118.253 16.617 118.634 17.189C118.729 17.2843 119.873 30.059 122.066 55.513C124.163 81.0623 125.212 93.7417 125.212 93.551L147.091 56.085C161.772 30.917 169.208 18.19 169.399 17.904C169.78 17.332 170.209 16.9507 170.686 16.76L171.401 16.331H185.844H200.144L200.716 16.76C201.002 17.1413 201.145 17.475 201.145 17.761L199.858 23.481C198.619 24.053 196.807 24.339 194.424 24.339C190.325 24.4343 187.846 24.625 186.988 24.911L186.273 25.34L186.13 25.483C185.844 25.769 182.412 39.1157 175.834 65.523C169.256 92.0257 166.015 105.277 166.11 105.277C166.587 105.754 169.447 105.992 174.69 105.992C176.978 105.992 178.265 106.326 178.551 106.993C178.742 107.279 178.599 108.375 178.122 110.282C177.741 112.093 177.359 113.19 176.978 113.571L176.549 114H174.404C164.775 113.523 153.86 113.476 141.657 113.857C138.797 113.952 137.176 113.666 136.795 112.999C136.604 112.713 136.747 111.617 137.224 109.71C137.701 107.899 138.034 106.802 138.225 106.421L138.797 105.992H143.23C147.711 105.897 150.237 105.706 150.809 105.42C151.286 105.134 151.667 104.514 151.953 103.561C152.62 101.75 155.814 89.3563 161.534 66.381C167.826 40.8317 170.972 28.1523 170.972 28.343C170.877 28.343 162.678 42.357 146.376 70.385C129.883 98.6037 121.589 112.761 121.494 112.856L120.493 113.714C120.112 113.905 119.015 114 117.204 114C114.916 114 113.677 113.714 113.486 113.142C113.295 112.665 112.056 98.6513 109.768 71.1L106.336 29.344L97.327 65.38C91.321 89.118 88.318 101.321 88.318 101.988C88.318 102.56 88.3657 102.894 88.461 102.989C89.2237 104.991 92.2743 105.992 97.613 105.992C98.9477 105.992 99.7103 106.326 99.901 106.993C100.092 107.279 99.9487 108.375 99.472 110.282C99.0907 112.093 98.7093 113.19 98.328 113.571L97.899 114H96.04C87.3647 113.523 77.9743 113.476 67.869 113.857C65.4857 113.952 64.1033 113.666 63.722 112.999C63.5313 112.713 63.6743 111.617 64.151 109.71C64.6277 107.803 65.009 106.707 65.295 106.421C65.581 106.135 66.2007 105.992 67.154 105.992C73.9227 105.992 78.0697 104.419 79.595 101.273L98.614 25.34C98.614 25.054 98.5187 24.911 98.328 24.911C97.756 24.7203 95.5157 24.5297 91.607 24.339C88.2703 24.339 86.4113 24.0053 86.03 23.338C85.9347 23.052 86.0777 21.9557 86.459 20.049C86.9357 18.2377 87.3647 17.1413 87.746 16.76ZM208.647 51.08C210.268 50.6033 212.317 50.651 214.796 51.223C216.321 51.6043 217.847 52.3193 219.372 53.368C220.897 54.512 221.994 55.7037 222.661 56.943L223.233 57.801L224.52 56.514C226.331 54.8933 228.143 53.6063 229.954 52.653C233.386 50.937 236.913 50.365 240.536 50.937C246.923 51.9857 250.927 54.9887 252.548 59.946C253.025 61.376 253.215 62.9013 253.12 64.522C252.834 68.1447 251.595 70.814 249.402 72.53C246.161 74.9133 243.158 75.3423 240.393 73.817C239.249 73.245 238.439 72.387 237.962 71.243C237.676 70.7663 237.485 70.0037 237.39 68.955C237.39 67.3343 237.724 65.8567 238.391 64.522C239.44 62.6153 240.727 61.3283 242.252 60.661C242.824 60.375 243.11 60.1367 243.11 59.946C242.824 59.374 241.918 58.802 240.393 58.23C238.391 57.372 236.294 57.2767 234.101 57.944C230.669 59.1833 227.38 62.9013 224.234 69.098C223.853 69.8607 221.946 76.963 218.514 90.405C215.082 104.228 213.08 111.569 212.508 112.427C212.413 112.618 212.174 112.904 211.793 113.285C209.791 115.287 207.455 116.002 204.786 115.43C202.403 114.763 201.116 113.285 200.925 110.997C200.925 110.139 202.736 102.417 206.359 87.831C210.077 73.4357 212.031 65.5707 212.222 64.236C212.508 61.7573 212.413 59.946 211.936 58.802C211.555 58.1347 210.935 57.7057 210.077 57.515C209.505 57.515 209.028 57.658 208.647 57.944C207.694 58.6113 206.788 59.7553 205.93 61.376C204.977 63.664 203.785 67.525 202.355 72.959C202.069 73.531 201.878 73.8647 201.783 73.96C201.592 74.1507 200.448 74.246 198.351 74.246H195.205L194.776 73.817C194.49 73.531 194.347 73.1497 194.347 72.673L195.205 69.241C197.684 60.947 200.734 55.513 204.357 52.939C205.882 51.9857 207.312 51.366 208.647 51.08ZM268.975 95.41C271.168 95.0287 273.122 95.3147 274.838 96.268C277.889 97.984 279.08 100.701 278.413 104.419C277.936 106.516 276.888 108.423 275.267 110.139C272.026 113.571 268.498 114.763 264.685 113.714C263.541 113.333 262.492 112.713 261.539 111.855C258.965 109.472 258.536 106.326 260.252 102.417C261.491 99.843 263.398 97.8887 265.972 96.554C267.116 95.982 268.117 95.6007 268.975 95.41Z" fill="#00418D"/>
<path d="M72.0703 162.293H59.1328C59.1328 160.137 58.7812 158.227 58.0781 156.562C57.375 154.875 56.3906 153.445 55.125 152.273C53.8594 151.102 52.3594 150.223 50.625 149.637C48.8906 149.027 46.9688 148.723 44.8594 148.723C40.8281 148.723 37.0781 149.742 33.6094 151.781C30.1406 153.82 27.1992 156.785 24.7852 160.676C22.3711 164.543 20.6953 169.242 19.7578 174.773C18.8906 180.164 18.9727 184.676 20.0039 188.309C21.0586 191.941 22.8867 194.684 25.4883 196.535C28.0898 198.363 31.2539 199.277 34.9805 199.277C37.2539 199.277 39.4336 198.996 41.5195 198.434C43.6055 197.848 45.5273 196.992 47.2852 195.867C49.0664 194.719 50.625 193.324 51.9609 191.684C53.3203 190.043 54.375 188.18 55.125 186.094H68.2383C67.1602 189.516 65.5781 192.738 63.4922 195.762C61.4063 198.762 58.8984 201.41 55.9688 203.707C53.0391 205.98 49.7578 207.762 46.125 209.051C42.4922 210.34 38.5781 210.984 34.3828 210.984C27.9375 210.984 22.418 209.484 17.8242 206.484C13.2539 203.461 9.97266 199.137 7.98047 193.512C5.98828 187.863 5.63672 181.102 6.92578 173.227C8.21484 165.562 10.6992 159.035 14.3789 153.645C18.082 148.254 22.5938 144.141 27.9141 141.305C33.2578 138.445 39.0117 137.016 45.1758 137.016C49.2539 137.016 52.957 137.578 56.2852 138.703C59.6367 139.828 62.5078 141.48 64.8984 143.66C67.2891 145.816 69.1055 148.465 70.3477 151.605C71.6133 154.723 72.1875 158.285 72.0703 162.293ZM76.1748 210L88.1279 138H101.171L91.0459 199.066H122.757L120.929 210H76.1748ZM199.617 174.844C198.352 182.484 195.855 189 192.129 194.391C188.426 199.758 183.902 203.871 178.559 206.73C173.238 209.566 167.508 210.984 161.367 210.984C154.922 210.984 149.391 209.484 144.773 206.484C140.156 203.461 136.828 199.137 134.789 193.512C132.773 187.887 132.422 181.137 133.734 173.262C135 165.645 137.484 159.129 141.188 153.715C144.891 148.301 149.426 144.164 154.793 141.305C160.16 138.445 165.949 137.016 172.16 137.016C178.559 137.016 184.043 138.527 188.613 141.551C193.207 144.551 196.512 148.875 198.527 154.523C200.566 160.172 200.93 166.945 199.617 174.844ZM186.785 173.262C187.652 167.941 187.57 163.453 186.539 159.797C185.531 156.141 183.738 153.387 181.16 151.535C178.582 149.66 175.406 148.723 171.633 148.723C167.555 148.723 163.781 149.742 160.313 151.781C156.867 153.797 153.938 156.75 151.523 160.641C149.133 164.531 147.492 169.266 146.602 174.844C145.664 180.187 145.723 184.676 146.777 188.309C147.832 191.941 149.66 194.684 152.262 196.535C154.863 198.363 158.039 199.277 161.789 199.277C165.844 199.277 169.594 198.27 173.039 196.254C176.484 194.238 179.402 191.297 181.793 187.43C184.207 183.562 185.871 178.84 186.785 173.262ZM275.581 162.293H262.644C262.644 160.137 262.292 158.227 261.589 156.562C260.886 154.875 259.901 153.445 258.636 152.273C257.37 151.102 255.87 150.223 254.136 149.637C252.401 149.027 250.479 148.723 248.37 148.723C244.339 148.723 240.589 149.742 237.12 151.781C233.651 153.82 230.71 156.785 228.296 160.676C225.882 164.543 224.206 169.242 223.269 174.773C222.401 180.164 222.483 184.676 223.515 188.309C224.569 191.941 226.397 194.684 228.999 196.535C231.601 198.363 234.765 199.277 238.491 199.277C240.765 199.277 242.944 198.996 245.03 198.434C247.116 197.848 249.038 196.992 250.796 195.867C252.577 194.719 254.136 193.324 255.472 191.684C256.831 190.043 257.886 188.18 258.636 186.094H271.749C270.671 189.516 269.089 192.738 267.003 195.762C264.917 198.762 262.409 201.41 259.479 203.707C256.55 205.98 253.269 207.762 249.636 209.051C246.003 210.34 242.089 210.984 237.894 210.984C231.448 210.984 225.929 209.484 221.335 206.484C216.765 203.461 213.483 199.137 211.491 193.512C209.499 187.863 209.147 181.102 210.437 173.227C211.726 165.562 214.21 159.035 217.89 153.645C221.593 148.254 226.104 144.141 231.425 141.305C236.769 138.445 242.522 137.016 248.687 137.016C252.765 137.016 256.468 137.578 259.796 138.703C263.147 139.828 266.019 141.48 268.409 143.66C270.8 145.816 272.616 148.465 273.858 151.605C275.124 154.723 275.698 158.285 275.581 162.293ZM279.686 210L291.639 138H304.682L299.232 171.082H300.111L333.65 138H349.576L316.424 170.309L337.869 210H322.189L305.947 179.133L296.314 188.625L292.729 210H279.686Z" fill="#000534"/>
</svg>
